<svg xmlns="http://www.w3.org/2000/svg" viewBox="0 0 512 512" style="height: 512px; width: 512px;"><g class="" transform="translate(62,14)" style=""><g transform="translate(0, 0) scale(1, 1) rotate(60, 256, 256) skewX(0) skewY(0)"><path d="M302.4 16L216.09 35.338L370.393 35.846C347.357 50.504 327.988 62.508 327.988 62.508L400.959 47.014L294.801 121.902L403.031 79.238C376.414 117.262 336.066 178.041 336.066 178.041L429.201 84.311L392.162 214.008L464.652 112.244L455.812 155.214L480.205 119.268L480.715 263.855L496 194.525L496 16L302.4 16Z" class="" fill="#ffffff" fill-opacity="0"></path><path d="M253.76 58.293C208.38 73.051 174.905 132.065 166.125 181.766C163.898 194.374 165.982 207.166 170.004 219.716C176.24 224.563 181.872 230.196 185.836 237.062C199.939 228.824 213.098 220.342 223.604 210.615C223.814 199.826 224.609 188.605 225.879 177.227C220.758 183.656 216.589 190.357 211.182 196.705C212.852 180.25 216.739 169.281 224.266 158.166L201.721 168.896C209.607 151.841 220.091 139.582 232.559 129.725C221.762 132.792 211.954 138.496 201.613 142.777C211.193 122.847 225.534 112.439 240.045 102.371C244.249 86.354 248.942 71.343 253.76 58.293Z" class="" fill="#fff" fill-opacity="1"></path><path d="M289.42 184.627L266.898 185.336L227.098 229.6L189.385 255.299L189.523 255.316C185.517 255.585 181.513 255.89 177.512 256.23C175.719 246.506 169.109 236.37 159.604 228.766C142.594 215.169 121.391 213.442 112.246 224.908C103.1 236.374 109.476 256.691 126.486 270.289C137.224 278.855 150.181 283.035 160.689 281.32C130.044 314.986 134.395 346.538 131.33 390.838L152.82 390.035C149.702 356.153 153.097 336.357 167.563 308.363C172.887 303.22 178.426 298.47 184.207 294.207C235.392 313.975 231.645 320.634 255.27 372.365L224.627 410.934L216.227 447.454L230.209 451.771L246.436 418.676C249.655 412.11 280.816 376.162 281.061 370.93C277.232 350.04 268.909 338.375 260.006 316.38L299.109 362.867C294.542 382.833 293.61 405.61 289.336 419.748L297.471 451.295L317.187 445.915L308.4 415.595C321.176 394.53 323.675 375.222 323.76 351.881C294.876 311.989 267.763 263.783 227.62 258.1C227.548 257.787 227.477 257.473 227.408 257.158L253.538 235.373L289.42 184.627Z" class="selected" fill="#fff" fill-opacity="1"></path><path d="M122.578 287.049C114.59 289.355 107.558 292.645 102.498 297.262C52.466 342.912 46.052 449.897 57.818 495.472C64.022 483.642 70.329 470.447 76.893 456.584C74.665 438.414 74.411 419.664 79.133 399.449C80.269 411.369 81.879 423.09 88.154 432.893C88.387 432.407 88.618 431.923 88.852 431.438C86.739 414.058 89.205 393.398 98.168 374.727C96.418 386.367 98.67 396.339 101.275 406.164C105.459 397.907 109.803 389.733 114.303 381.644C114.222 365.444 116.26 344.947 121.416 324.338C124.119 313.536 127.658 302.692 132.311 292.512C128.873 290.863 125.623 288.99 122.578 287.049Z" class="" fill="#fff" fill-opacity="1"></path></g></g></svg>